# Blender v2.55 (sub 0) OBJ File: 'glass_blade.blend'
# www.blender.org
mtllib glass_blade.mtl
o Plane
v -0.008340 0.418148 0.075161
v -0.008340 0.418148 -0.075161
v 0.020229 -0.007934 -0.057955
v 0.024391 -0.007933 0.057955
v -0.049043 0.418147 -0.000000
v 0.010648 -0.007934 0.000000
v -0.043632 0.740228 -0.003088
v -0.022702 0.740228 -0.056529
v -0.022702 0.740228 0.050353
v -0.016931 0.948404 -0.003886
vn 0.920221 0.107403 -0.376375
vn 0.930464 0.103467 0.351471
vn 0.901785 0.002103 0.432180
vn 0.901770 -0.006184 -0.432172
vn 0.924411 -0.119955 -0.362044
vn 0.924715 -0.117219 0.362163
usemtl Material.Grass
s off
f 5//1 1//1 4//1 6//1
f 6//2 3//2 2//2 5//2
f 5//3 2//3 8//3 7//3
f 1//4 5//4 7//4 9//4
f 9//5 7//5 10//5
f 7//6 8//6 10//6
