# Blender v2.55 (sub 0) OBJ File: ''
# www.blender.org
mtllib test.mtl
o Plane
v 1.000000 -0.000000 -1.000000
v 1.000000 0.000000 1.000000
v -1.000000 0.000000 1.000000
v -1.000000 -0.000000 -1.000000
v 2.381352 0.122269 1.000000
v 2.381352 0.122269 -1.000000
v 3.377012 0.772546 -1.000000
v 3.377012 0.772546 1.000000
v 3.898640 2.050401 1.000000
v 3.898640 2.050401 -1.000000
v 3.697191 3.401855 -1.000000
v 3.697191 3.401855 1.000000
v 2.785086 4.137332 1.000000
v 2.785086 4.137332 -1.000000
v 1.469154 4.425672 -1.000000
v 1.469154 4.425672 1.000000
v -0.023136 4.477117 1.000000
v -0.023136 4.477117 -1.000000
v -1.317021 4.383455 -1.000000
v -1.317021 4.383455 1.000000
v -2.488513 4.277245 1.000000
v -2.488513 4.277245 -1.000000
v -3.852679 4.212371 1.000000
v -4.713455 4.638449 0.426700
v -3.349290 4.703323 -1.573300
vn -0.047502 0.998871 0.000000
vn -0.072199 0.997390 0.000000
vn 0.034453 0.999406 0.000000
vn 0.214037 0.976826 0.000000
vn 0.627705 0.778451 0.000000
vn 0.989072 0.147432 0.000000
vn 0.925834 -0.377931 0.000000
vn 0.546818 -0.837251 0.000000
vn 0.088170 -0.996106 0.000000
vn 0.000000 -1.000000 0.000000
vn 0.300845 0.924220 0.235180
vn -0.090292 0.995915 0.000000
usemtl (null)
s off
f 21//1 22//1 23//1
f 19//2 20//2 17//2 18//2
f 18//3 17//3 16//3 15//3
f 15//4 16//4 13//4 14//4
f 14//5 13//5 12//5 11//5
f 11//6 12//6 9//6 10//6
f 10//7 9//7 8//7 7//7
f 7//8 8//8 5//8 6//8
f 2//9 1//9 6//9 5//9
f 4//10 1//10 2//10 3//10
f 23//11 22//11 25//11 24//11
f 19//12 22//12 21//12 20//12
